<?xml version="1.0" encoding="UTF-8"?><svg id="_이어_2" xmlns="http://www.w3.org/2000/svg" viewBox="0 0 84.56 71.66"><g id="_이어_1-2"><g><path d="M31.61,6.81H14.13V2.83H31.61v3.98Zm-4.88,1.4c1.12,.5,2,1.19,2.62,2.08,.62,.89,.94,1.91,.94,3.06s-.31,2.11-.94,2.99-1.5,1.55-2.62,2.04c-1.12,.49-2.4,.73-3.83,.73s-2.71-.24-3.84-.73c-1.13-.48-2.02-1.16-2.66-2.04-.65-.87-.97-1.87-.97-2.99s.32-2.17,.97-3.06c.64-.89,1.53-1.58,2.66-2.08,1.13-.5,2.41-.74,3.84-.74s2.7,.25,3.83,.74Zm-3.35,18.62h-5.15v-6.42h5.15v6.42Zm15.33,2.33H18.24v-4.09h20.47v4.09ZM25.47,4.75h-5.15V0h5.15V4.75Zm-3.88,6.83c-.37,.13-.65,.35-.85,.65-.2,.3-.3,.67-.3,1.12s.1,.78,.3,1.06c.2,.28,.48,.49,.85,.63s.8,.21,1.3,.21,.94-.07,1.32-.21c.38-.14,.67-.35,.88-.63,.21-.28,.31-.64,.31-1.06,0-.45-.1-.82-.31-1.12-.21-.3-.5-.51-.88-.65-.38-.13-.82-.2-1.32-.2s-.94,.07-1.3,.2Zm16.24,10.49h-5.15V.06h5.15V22.07Zm3.69-9.24h-5.11v-4.15h5.11v4.15Z"/><path d="M69.68,15.39h-26.94v-3.98h26.94v3.98Zm-13.44-8.67c-.85,1.16-2.19,2.11-4,2.88s-4.12,1.23-6.91,1.4l-1.58-3.82c2.32-.14,4.18-.44,5.57-.91,1.39-.47,2.36-1,2.92-1.6s.83-1.21,.83-1.84v-.59h4.47v.59c-.01,1.44-.44,2.74-1.29,3.89Zm10.98-2.12h-22.07V.72h22.07v3.88Zm-.72,20.09h-15.76v2.09h-5.03v-5.58h15.71v-.85h-15.68v-3.76h20.76v8.09Zm.69,4.76h-21.48v-3.79h21.48v3.79Zm-8.49-11.41h-5.05v-3.84h5.05v3.84Zm1.37-13.38c.57,.6,1.56,1.14,2.96,1.61,1.4,.47,3.27,.77,5.6,.91l-1.55,3.82c-2.82-.17-5.15-.63-6.99-1.38s-3.19-1.71-4.05-2.87c-.86-1.16-1.29-2.47-1.28-3.92v-.59h4.47v.59c-.01,.62,.27,1.23,.84,1.83Z"/><path d="M12.39,44.2c1.25,.6,2.23,1.45,2.94,2.53,.71,1.09,1.06,2.31,1.06,3.66s-.35,2.62-1.06,3.71c-.71,1.09-1.69,1.94-2.94,2.55-1.25,.61-2.64,.92-4.16,.92s-2.96-.31-4.2-.92c-1.25-.61-2.23-1.46-2.95-2.55-.72-1.09-1.08-2.32-1.08-3.71s.36-2.57,1.08-3.66c.72-1.09,1.7-1.93,2.95-2.53,1.25-.6,2.65-.9,4.2-.9s2.91,.3,4.16,.9Zm-3.54,17.2h9.59v-2.22h5.15v12.11H3.75v-12.11h5.1v2.22Zm-2.31-13.58c-.49,.22-.87,.55-1.14,.98-.28,.43-.42,.96-.42,1.59s.14,1.18,.42,1.61c.28,.44,.66,.76,1.14,.98,.48,.22,1.05,.33,1.69,.33s1.18-.11,1.65-.33c.47-.22,.84-.55,1.12-.98,.28-.44,.42-.98,.42-1.61s-.14-1.16-.42-1.59c-.28-.43-.65-.76-1.13-.98-.47-.22-1.02-.34-1.64-.34s-1.2,.11-1.69,.34Zm11.9,19.38v-1.92H8.85v1.92h9.59Zm5.15-9.11h-5.15v-16.09h5.15v16.09Zm3.69-6.04h-5.15v-4.15h5.15v4.15Z"/><path d="M34.91,63.17h-5.08v-18.39h5.08v18.39Zm4.62-3.3c2.38-.2,4.72-.51,7.03-.94l.62,4.2c-2.41,.49-4.83,.84-7.28,1.05-2.45,.21-4.89,.31-7.33,.3h-2.75v-4.31h2.75c2.26,0,4.58-.1,6.95-.3Zm14.06,11.69h-5.08v-29.56h5.08v29.56Z"/><path d="M71.95,48.79h-8.77v13.77h-5.13v-17.9h13.9v4.12Zm-4.41,11.47c2.07-.13,4.13-.36,6.2-.7l.53,4.25c-2.1,.34-4.19,.56-6.27,.67-2.08,.11-4.53,.15-7.34,.13h-2.6v-4.19h2.6c2.53,.02,4.82-.03,6.89-.16Zm13.01,11.39h-5.15v-29.66h5.15v29.66Zm4.01-14.97h-5.13v-4.15h5.13v4.15Z"/></g></g></svg>